<svg width="20" height="20" viewBox="0 0 20 20" fill="none" xmlns="http://www.w3.org/2000/svg">
<g id="ChartBar">
<path id="Vector" d="M17.5 15.6249H16.875V3.12488C16.875 2.95912 16.8092 2.80015 16.692 2.68294C16.5747 2.56573 16.4158 2.49988 16.25 2.49988H11.875C11.7093 2.49988 11.5503 2.56573 11.4331 2.68294C11.3159 2.80015 11.25 2.95912 11.25 3.12488V6.24988H7.50001C7.33425 6.24988 7.17528 6.31573 7.05807 6.43294C6.94086 6.55015 6.87501 6.70912 6.87501 6.87488V9.99988H3.75001C3.58425 9.99988 3.42528 10.0657 3.30807 10.1829C3.19086 10.3001 3.12501 10.4591 3.12501 10.6249V15.6249H2.50001C2.33425 15.6249 2.17528 15.6907 2.05807 15.8079C1.94086 15.9251 1.87501 16.0841 1.87501 16.2499C1.87501 16.4156 1.94086 16.5746 2.05807 16.6918C2.17528 16.809 2.33425 16.8749 2.50001 16.8749H17.5C17.6658 16.8749 17.8247 16.809 17.942 16.6918C18.0592 16.5746 18.125 16.4156 18.125 16.2499C18.125 16.0841 18.0592 15.9251 17.942 15.8079C17.8247 15.6907 17.6658 15.6249 17.5 15.6249ZM12.5 3.74988H15.625V15.6249H12.5V3.74988ZM8.12501 7.49988H11.25V15.6249H8.12501V7.49988ZM4.37501 11.2499H6.87501V15.6249H4.37501V11.2499Z" fill="#0F172A"/>
</g>
</svg>
