<svg width="20" height="20" viewBox="0 0 20 20" fill="none" xmlns="http://www.w3.org/2000/svg">
<g id="ChatsCircle">
<path id="Vector" d="M18.1305 14.5905C18.5623 13.6948 18.7742 12.709 18.7486 11.7149C18.7229 10.7208 18.4604 9.74725 17.9829 8.87501C17.5054 8.00276 16.8267 7.25704 16.0031 6.69978C15.1796 6.14253 14.2349 5.78982 13.2476 5.67097C12.9191 4.9072 12.4416 4.21664 11.8428 3.63974C11.2441 3.06284 10.5363 2.6112 9.76089 2.31126C8.98546 2.01131 8.15797 1.8691 7.32689 1.89295C6.4958 1.9168 5.67783 2.10623 4.92087 2.45015C4.16391 2.79407 3.48318 3.28556 2.91853 3.89584C2.35389 4.50612 1.91669 5.22293 1.63253 6.00429C1.34837 6.78565 1.22296 7.61585 1.26366 8.44628C1.30435 9.27671 1.51032 10.0907 1.86952 10.8405L1.30155 12.771C1.23804 12.9865 1.2338 13.2151 1.28926 13.4328C1.34471 13.6506 1.45783 13.8493 1.61669 14.0082C1.77556 14.167 1.97431 14.2801 2.19202 14.3356C2.40974 14.3911 2.63838 14.3868 2.85389 14.3233L4.78436 13.7553C5.40423 14.0532 6.0688 14.2472 6.75155 14.3296C7.08325 15.1068 7.56911 15.8086 8.17975 16.3927C8.7904 16.9768 9.51315 17.431 10.3043 17.7279C11.0955 18.0247 11.9386 18.158 12.7828 18.1198C13.6269 18.0815 14.4545 17.8725 15.2156 17.5053L17.1461 18.0733C17.3615 18.1367 17.59 18.141 17.8077 18.0855C18.0253 18.0301 18.224 17.9171 18.3828 17.7583C18.5416 17.5996 18.6548 17.4009 18.7103 17.1834C18.7659 16.9658 18.7617 16.7372 18.6984 16.5218L18.1305 14.5905ZM4.84374 12.4608C4.78401 12.461 4.72459 12.4694 4.66717 12.4858L2.49999 13.1249L3.13827 10.9561C3.18366 10.7994 3.166 10.6312 3.08905 10.4874C2.52367 9.43002 2.35707 8.2047 2.61965 7.03477C2.88222 5.86485 3.55646 4.82824 4.51947 4.1139C5.48249 3.39957 6.67013 3.05508 7.86591 3.14324C9.06169 3.2314 10.186 3.74633 11.0338 4.59417C11.8817 5.44201 12.3966 6.5663 12.4848 7.76208C12.5729 8.95786 12.2284 10.1455 11.5141 11.1085C10.7998 12.0715 9.76314 12.7458 8.59322 13.0083C7.42329 13.2709 6.19797 13.1043 5.14061 12.5389C5.04969 12.4886 4.94765 12.4618 4.84374 12.4608ZM16.8586 14.7053L17.5 16.8749L15.3312 16.2366C15.1746 16.1912 15.0063 16.2089 14.8625 16.2858C13.7116 16.9004 12.3661 17.0411 11.113 16.678C9.85979 16.3149 8.798 15.4767 8.15389 14.3421C9.00966 14.2527 9.83773 13.9875 10.5862 13.5631C11.3346 13.1386 11.9872 12.5641 12.5031 11.8755C13.019 11.1869 13.3871 10.3992 13.5842 9.56163C13.7813 8.72409 13.8031 7.85486 13.6484 7.00847C14.394 7.18423 15.0893 7.52896 15.6805 8.01605C16.2718 8.50315 16.7432 9.11959 17.0584 9.81779C17.3736 10.516 17.5242 11.2773 17.4985 12.0429C17.4728 12.8085 17.2715 13.558 16.9101 14.2335C16.8324 14.3782 16.8147 14.5477 16.8609 14.7053H16.8586Z" fill="#0F172A"/>
</g>
</svg>
