<svg width="20" height="20" viewBox="0 0 20 20" fill="none" xmlns="http://www.w3.org/2000/svg">
<g id="CheckSquareOffset">
<path id="Vector" d="M17.5 3.74988V16.2499C17.5 16.5814 17.3683 16.8993 17.1339 17.1338C16.8995 17.3682 16.5815 17.4999 16.25 17.4999H10.625C10.4592 17.4999 10.3003 17.434 10.1831 17.3168C10.0658 17.1996 9.99999 17.0406 9.99999 16.8749C9.99999 16.7091 10.0658 16.5501 10.1831 16.4329C10.3003 16.3157 10.4592 16.2499 10.625 16.2499H16.25V3.74988H3.74999V11.2499C3.74999 11.4156 3.68414 11.5746 3.56693 11.6918C3.44972 11.809 3.29075 11.8749 3.12499 11.8749C2.95923 11.8749 2.80026 11.809 2.68305 11.6918C2.56584 11.5746 2.49999 11.4156 2.49999 11.2499V3.74988C2.49999 3.41836 2.63169 3.10041 2.86611 2.86599C3.10053 2.63157 3.41847 2.49988 3.74999 2.49988H16.25C16.5815 2.49988 16.8995 2.63157 17.1339 2.86599C17.3683 3.10041 17.5 3.41836 17.5 3.74988ZM9.81718 12.0577C9.75913 11.9996 9.6902 11.9535 9.61433 11.922C9.53846 11.8906 9.45713 11.8744 9.37499 11.8744C9.29286 11.8744 9.21153 11.8906 9.13565 11.922C9.05978 11.9535 8.99085 11.9996 8.93281 12.0577L4.99999 15.9913L3.56718 14.5577C3.50911 14.4996 3.44017 14.4536 3.3643 14.4221C3.28843 14.3907 3.20711 14.3745 3.12499 14.3745C3.04287 14.3745 2.96155 14.3907 2.88568 14.4221C2.80981 14.4536 2.74087 14.4996 2.68281 14.5577C2.62474 14.6158 2.57867 14.6847 2.54725 14.7606C2.51582 14.8364 2.49965 14.9178 2.49965 14.9999C2.49965 15.082 2.51582 15.1633 2.54725 15.2392C2.57867 15.3151 2.62474 15.384 2.68281 15.4421L4.55781 17.3171C4.61585 17.3752 4.68478 17.4213 4.76065 17.4527C4.83653 17.4842 4.91786 17.5004 4.99999 17.5004C5.08213 17.5004 5.16346 17.4842 5.23933 17.4527C5.3152 17.4213 5.38413 17.3752 5.44218 17.3171L9.81718 12.9421C9.87529 12.884 9.92139 12.8151 9.95284 12.7392C9.9843 12.6633 10.0005 12.582 10.0005 12.4999C10.0005 12.4177 9.9843 12.3364 9.95284 12.2605C9.92139 12.1847 9.87529 12.1157 9.81718 12.0577Z" fill="#0F172A"/>
</g>
</svg>
