<svg width="20" height="20" viewBox="0 0 20 20" fill="none" xmlns="http://www.w3.org/2000/svg">
<g id="ClipboardText">
<path id="Vector" d="M13.125 11.875C13.125 12.0408 13.0591 12.1997 12.9419 12.317C12.8247 12.4342 12.6657 12.5 12.5 12.5H7.49998C7.33422 12.5 7.17525 12.4342 7.05804 12.317C6.94083 12.1997 6.87498 12.0408 6.87498 11.875C6.87498 11.7092 6.94083 11.5503 7.05804 11.4331C7.17525 11.3159 7.33422 11.25 7.49998 11.25H12.5C12.6657 11.25 12.8247 11.3159 12.9419 11.4331C13.0591 11.5503 13.125 11.7092 13.125 11.875ZM12.5 8.75001H7.49998C7.33422 8.75001 7.17525 8.81586 7.05804 8.93307C6.94083 9.05028 6.87498 9.20925 6.87498 9.37501C6.87498 9.54077 6.94083 9.69974 7.05804 9.81695C7.17525 9.93416 7.33422 10 7.49998 10H12.5C12.6657 10 12.8247 9.93416 12.9419 9.81695C13.0591 9.69974 13.125 9.54077 13.125 9.37501C13.125 9.20925 13.0591 9.05028 12.9419 8.93307C12.8247 8.81586 12.6657 8.75001 12.5 8.75001ZM16.875 3.75001V16.875C16.875 17.2065 16.7433 17.5245 16.5089 17.7589C16.2744 17.9933 15.9565 18.125 15.625 18.125H4.37498C4.04346 18.125 3.72552 17.9933 3.4911 17.7589C3.25668 17.5245 3.12498 17.2065 3.12498 16.875V3.75001C3.12498 3.41849 3.25668 3.10055 3.4911 2.86613C3.72552 2.6317 4.04346 2.50001 4.37498 2.50001H7.20779C7.55897 2.10682 7.98922 1.79224 8.4704 1.57685C8.95157 1.36146 9.4728 1.25012 9.99998 1.25012C10.5272 1.25012 11.0484 1.36146 11.5296 1.57685C12.0107 1.79224 12.441 2.10682 12.7922 2.50001H15.625C15.9565 2.50001 16.2744 2.6317 16.5089 2.86613C16.7433 3.10055 16.875 3.41849 16.875 3.75001ZM7.49998 5.00001H12.5C12.5 4.33697 12.2366 3.70108 11.7677 3.23224C11.2989 2.7634 10.663 2.50001 9.99998 2.50001C9.33694 2.50001 8.70105 2.7634 8.23221 3.23224C7.76337 3.70108 7.49998 4.33697 7.49998 5.00001ZM15.625 3.75001H13.5351C13.6773 4.15143 13.75 4.57416 13.75 5.00001V5.62501C13.75 5.79077 13.6841 5.94974 13.5669 6.06695C13.4497 6.18416 13.2907 6.25001 13.125 6.25001H6.87498C6.70922 6.25001 6.55025 6.18416 6.43304 6.06695C6.31583 5.94974 6.24998 5.79077 6.24998 5.62501V5.00001C6.25 4.57416 6.32265 4.15143 6.46482 3.75001H4.37498V16.875H15.625V3.75001Z" fill="#0F172A"/>
</g>
</svg>
