<svg width="20" height="20" viewBox="0 0 20 20" fill="none" xmlns="http://www.w3.org/2000/svg">
<g id="CornersOut">
<path id="Vector" d="M16.875 3.74988V6.87488C16.875 7.04064 16.8092 7.19961 16.6919 7.31682C16.5747 7.43403 16.4158 7.49988 16.25 7.49988C16.0842 7.49988 15.9253 7.43403 15.8081 7.31682C15.6908 7.19961 15.625 7.04064 15.625 6.87488V4.37488H13.125C12.9592 4.37488 12.8003 4.30903 12.6831 4.19182C12.5658 4.07461 12.5 3.91564 12.5 3.74988C12.5 3.58412 12.5658 3.42515 12.6831 3.30794C12.8003 3.19073 12.9592 3.12488 13.125 3.12488H16.25C16.4158 3.12488 16.5747 3.19073 16.6919 3.30794C16.8092 3.42515 16.875 3.58412 16.875 3.74988ZM6.875 15.6249H4.375V13.1249C4.375 12.9591 4.30915 12.8001 4.19194 12.6829C4.07473 12.5657 3.91576 12.4999 3.75 12.4999C3.58424 12.4999 3.42527 12.5657 3.30806 12.6829C3.19085 12.8001 3.125 12.9591 3.125 13.1249V16.2499C3.125 16.4156 3.19085 16.5746 3.30806 16.6918C3.42527 16.809 3.58424 16.8749 3.75 16.8749H6.875C7.04076 16.8749 7.19973 16.809 7.31694 16.6918C7.43415 16.5746 7.5 16.4156 7.5 16.2499C7.5 16.0841 7.43415 15.9251 7.31694 15.8079C7.19973 15.6907 7.04076 15.6249 6.875 15.6249ZM16.25 12.4999C16.0842 12.4999 15.9253 12.5657 15.8081 12.6829C15.6908 12.8001 15.625 12.9591 15.625 13.1249V15.6249H13.125C12.9592 15.6249 12.8003 15.6907 12.6831 15.8079C12.5658 15.9251 12.5 16.0841 12.5 16.2499C12.5 16.4156 12.5658 16.5746 12.6831 16.6918C12.8003 16.809 12.9592 16.8749 13.125 16.8749H16.25C16.4158 16.8749 16.5747 16.809 16.6919 16.6918C16.8092 16.5746 16.875 16.4156 16.875 16.2499V13.1249C16.875 12.9591 16.8092 12.8001 16.6919 12.6829C16.5747 12.5657 16.4158 12.4999 16.25 12.4999ZM6.875 3.12488H3.75C3.58424 3.12488 3.42527 3.19073 3.30806 3.30794C3.19085 3.42515 3.125 3.58412 3.125 3.74988V6.87488C3.125 7.04064 3.19085 7.19961 3.30806 7.31682C3.42527 7.43403 3.58424 7.49988 3.75 7.49988C3.91576 7.49988 4.07473 7.43403 4.19194 7.31682C4.30915 7.19961 4.375 7.04064 4.375 6.87488V4.37488H6.875C7.04076 4.37488 7.19973 4.30903 7.31694 4.19182C7.43415 4.07461 7.5 3.91564 7.5 3.74988C7.5 3.58412 7.43415 3.42515 7.31694 3.30794C7.19973 3.19073 7.04076 3.12488 6.875 3.12488Z" fill="#64748B"/>
</g>
</svg>
