<svg width="20" height="20" viewBox="0 0 20 20" fill="none" xmlns="http://www.w3.org/2000/svg">
<g id="House">
<path id="Vector" d="M17.1336 8.49058L10.8836 2.24058C10.6492 2.00634 10.3314 1.87476 10 1.87476C9.66864 1.87476 9.35082 2.00634 9.11643 2.24058L2.86643 8.49058C2.74979 8.60635 2.65733 8.74416 2.59443 8.89598C2.53153 9.04781 2.49943 9.21062 2.50002 9.37496V16.875C2.50002 17.0407 2.56587 17.1997 2.68308 17.3169C2.80029 17.4341 2.95926 17.5 3.12502 17.5H8.12502C8.29078 17.5 8.44975 17.4341 8.56696 17.3169C8.68417 17.1997 8.75002 17.0407 8.75002 16.875V12.5H11.25V16.875C11.25 17.0407 11.3159 17.1997 11.4331 17.3169C11.5503 17.4341 11.7093 17.5 11.875 17.5H16.875C17.0408 17.5 17.1998 17.4341 17.317 17.3169C17.4342 17.1997 17.5 17.0407 17.5 16.875V9.37496C17.5006 9.21062 17.4685 9.04781 17.4056 8.89598C17.3427 8.74416 17.2503 8.60635 17.1336 8.49058ZM16.25 16.25H12.5V11.875C12.5 11.7092 12.4342 11.5502 12.317 11.433C12.1998 11.3158 12.0408 11.25 11.875 11.25H8.12502C7.95926 11.25 7.80029 11.3158 7.68308 11.433C7.56587 11.5502 7.50002 11.7092 7.50002 11.875V16.25H3.75002V9.37496L10 3.12496L16.25 9.37496V16.25Z" fill="#0F172A"/>
</g>
</svg>
