<svg width="32" height="32" viewBox="0 0 32 32" fill="none" xmlns="http://www.w3.org/2000/svg">
<g id="Flag/india" clip-path="url(#clip0_14740_1600)">
<path id="Vector" d="M16 32C24.8366 32 32 24.8366 32 16C32 7.16344 24.8366 0 16 0C7.16344 0 0 7.16344 0 16C0 24.8366 7.16344 32 16 32Z" fill="#F0F0F0"/>
<path id="Vector_2" d="M16.001 0C9.65762 0 4.17662 3.69156 1.58862 9.0435H30.4133C27.8254 3.69156 22.3443 0 16.001 0Z" fill="#FF9811"/>
<path id="Vector_3" d="M16.001 32.0005C22.3443 32.0005 27.8254 28.309 30.4134 22.957H1.58862C4.17662 28.309 9.65762 32.0005 16.001 32.0005Z" fill="#6DA544"/>
<path id="Vector_4" d="M16 21.5652C19.0736 21.5652 21.5652 19.0736 21.5652 16C21.5652 12.9264 19.0736 10.4348 16 10.4348C12.9264 10.4348 10.4348 12.9264 10.4348 16C10.4348 19.0736 12.9264 21.5652 16 21.5652Z" fill="#0052B4"/>
<path id="Vector_5" d="M15.9994 19.4787C17.9204 19.4787 19.4776 17.9214 19.4776 16.0005C19.4776 14.0795 17.9204 12.5222 15.9994 12.5222C14.0784 12.5222 12.5211 14.0795 12.5211 16.0005C12.5211 17.9214 14.0784 19.4787 15.9994 19.4787Z" fill="#F0F0F0"/>
<path id="Vector_6" d="M16.0006 11.7074L17.0737 14.141L19.7177 13.8535L18.1467 15.9995L19.7177 18.1456L17.0737 17.858L16.0006 20.2916L14.9276 17.858L12.2836 18.1455L13.8546 15.9995L12.2836 13.8535L14.9276 14.141L16.0006 11.7074Z" fill="#0052B4"/>
</g>
<defs>
<clipPath id="clip0_14740_1600">
<rect width="32" height="32" fill="white"/>
</clipPath>
</defs>
</svg>
