<svg width="20" height="20" viewBox="0 0 20 20" fill="none" xmlns="http://www.w3.org/2000/svg">
<g id="MagnifyingGlass">
<path id="Vector" d="M17.9422 17.0579L14.0305 13.1469C15.1643 11.7858 15.7296 10.0399 15.609 8.2725C15.4883 6.50512 14.6909 4.85229 13.3826 3.65785C12.0744 2.46341 10.356 1.81932 8.58495 1.85957C6.81391 1.89982 5.12656 2.62131 3.87392 3.87395C2.62128 5.12659 1.89979 6.81394 1.85954 8.58498C1.81929 10.356 2.46338 12.0744 3.65782 13.3827C4.85226 14.6909 6.50509 15.4883 8.27247 15.609C10.0399 15.7297 11.7857 15.1643 13.1469 14.0305L17.0578 17.9422C17.1159 18.0003 17.1848 18.0464 17.2607 18.0778C17.3366 18.1092 17.4179 18.1254 17.5 18.1254C17.5821 18.1254 17.6635 18.1092 17.7393 18.0778C17.8152 18.0464 17.8841 18.0003 17.9422 17.9422C18.0003 17.8842 18.0463 17.8152 18.0778 17.7394C18.1092 17.6635 18.1254 17.5822 18.1254 17.5001C18.1254 17.4179 18.1092 17.3366 18.0778 17.2607C18.0463 17.1849 18.0003 17.1159 17.9422 17.0579ZM3.12503 8.75006C3.12503 7.63754 3.45493 6.55 4.07301 5.62497C4.69109 4.69995 5.5696 3.97898 6.59743 3.55323C7.62527 3.12749 8.75627 3.0161 9.84741 3.23314C10.9386 3.45018 11.9408 3.98591 12.7275 4.77258C13.5142 5.55925 14.0499 6.56153 14.2669 7.65267C14.484 8.74382 14.3726 9.87482 13.9468 10.9027C13.5211 11.9305 12.8001 12.809 11.8751 13.4271C10.9501 14.0452 9.86255 14.3751 8.75003 14.3751C7.25869 14.3734 5.82891 13.7802 4.77438 12.7257C3.71984 11.6712 3.12668 10.2414 3.12503 8.75006Z" fill="#0F172A"/>
</g>
</svg>
