<svg width="21" height="20" viewBox="0 0 21 20" fill="none" xmlns="http://www.w3.org/2000/svg">
<g id="MapPin">
<path id="Vector" d="M10.3333 4.99988C9.71525 4.99988 9.11106 5.18316 8.59716 5.52654C8.08325 5.86992 7.68271 6.35797 7.44619 6.92899C7.20967 7.50001 7.14778 8.12834 7.26836 8.73454C7.38894 9.34073 7.68657 9.89755 8.1236 10.3346C8.56064 10.7716 9.11747 11.0693 9.72366 11.1898C10.3298 11.3104 10.9582 11.2485 11.5292 11.012C12.1002 10.7755 12.5883 10.3749 12.9317 9.86103C13.275 9.34713 13.4583 8.74294 13.4583 8.12488C13.4583 7.29608 13.1291 6.50122 12.543 5.91517C11.957 5.32912 11.1621 4.99988 10.3333 4.99988ZM10.3333 9.99988C9.96247 9.99988 9.59996 9.88991 9.29162 9.68388C8.98328 9.47786 8.74295 9.18502 8.60104 8.84241C8.45912 8.4998 8.42199 8.1228 8.49434 7.75908C8.56669 7.39537 8.74526 7.06128 9.00749 6.79905C9.26971 6.53683 9.6038 6.35825 9.96752 6.28591C10.3312 6.21356 10.7082 6.25069 11.0508 6.3926C11.3935 6.53452 11.6863 6.77484 11.8923 7.08318C12.0983 7.39153 12.2083 7.75404 12.2083 8.12488C12.2083 8.62216 12.0108 9.09907 11.6591 9.4507C11.3075 9.80233 10.8306 9.99988 10.3333 9.99988ZM10.3333 1.24988C8.51058 1.25195 6.7631 1.97694 5.47424 3.2658C4.18537 4.55467 3.46038 6.30215 3.45831 8.12488C3.45831 10.578 4.59191 13.178 6.73956 15.6444C7.70458 16.7589 8.7907 17.7625 9.97784 18.6366C10.0829 18.7102 10.2081 18.7497 10.3364 18.7497C10.4647 18.7497 10.5899 18.7102 10.695 18.6366C11.88 17.7621 12.964 16.7586 13.9271 15.6444C16.0716 13.178 17.2083 10.578 17.2083 8.12488C17.2062 6.30215 16.4813 4.55467 15.1924 3.2658C13.9035 1.97694 12.156 1.25195 10.3333 1.24988ZM10.3333 17.3436C9.04191 16.328 4.70831 12.5975 4.70831 8.12488C4.70831 6.63304 5.30095 5.20229 6.35584 4.1474C7.41073 3.09251 8.84147 2.49988 10.3333 2.49988C11.8252 2.49988 13.2559 3.09251 14.3108 4.1474C15.3657 5.20229 15.9583 6.63304 15.9583 8.12488C15.9583 12.596 11.6247 16.328 10.3333 17.3436Z" fill="#0F172A"/>
</g>
</svg>
