<svg width="16" height="16" viewBox="0 0 16 16" fill="none" xmlns="http://www.w3.org/2000/svg">
<g id="MapPin">
<path id="Vector" d="M8 3.99988C7.50555 3.99988 7.0222 4.1465 6.61107 4.4212C6.19995 4.69591 5.87952 5.08635 5.6903 5.54317C5.50108 5.99998 5.45157 6.50265 5.54804 6.9876C5.6445 7.47256 5.8826 7.91801 6.23223 8.26764C6.58186 8.61728 7.02732 8.85538 7.51227 8.95184C7.99723 9.0483 8.49989 8.9988 8.95671 8.80958C9.41352 8.62036 9.80397 8.29993 10.0787 7.8888C10.3534 7.47768 10.5 6.99433 10.5 6.49988C10.5 5.83684 10.2366 5.20095 9.76777 4.73211C9.29893 4.26327 8.66304 3.99988 8 3.99988ZM8 7.99988C7.70333 7.99988 7.41332 7.9119 7.16664 7.74708C6.91997 7.58226 6.72771 7.34799 6.61418 7.0739C6.50065 6.79981 6.47094 6.49821 6.52882 6.20724C6.5867 5.91627 6.72956 5.649 6.93934 5.43922C7.14912 5.22944 7.41639 5.08658 7.70736 5.0287C7.99834 4.97082 8.29994 5.00053 8.57403 5.11406C8.84811 5.22759 9.08238 5.41985 9.2472 5.66652C9.41203 5.9132 9.5 6.20321 9.5 6.49988C9.5 6.8977 9.34196 7.27923 9.06066 7.56054C8.77936 7.84184 8.39782 7.99988 8 7.99988ZM8 0.999878C6.54182 1.00153 5.14383 1.58153 4.11274 2.61262C3.08165 3.64371 2.50165 5.0417 2.5 6.49988C2.5 8.46238 3.40688 10.5424 5.125 12.5155C5.89701 13.4071 6.76591 14.21 7.71562 14.9093C7.7997 14.9681 7.89985 14.9997 8.0025 14.9997C8.10515 14.9997 8.20531 14.9681 8.28938 14.9093C9.23734 14.2097 10.1046 13.4068 10.875 12.5155C12.5906 10.5424 13.5 8.46238 13.5 6.49988C13.4983 5.0417 12.9184 3.64371 11.8873 2.61262C10.8562 1.58153 9.45818 1.00153 8 0.999878ZM8 13.8749C6.96688 13.0624 3.5 10.078 3.5 6.49988C3.5 5.3064 3.97411 4.16181 4.81802 3.3179C5.66193 2.47398 6.80653 1.99988 8 1.99988C9.19347 1.99988 10.3381 2.47398 11.182 3.3179C12.0259 4.16181 12.5 5.3064 12.5 6.49988C12.5 10.0768 9.03312 13.0624 8 13.8749Z" fill="#64748B"/>
</g>
</svg>
