<svg width="20" height="21" viewBox="0 0 20 21" fill="none" xmlns="http://www.w3.org/2000/svg">
<g id="PaperPlaneTilt">
<path id="Vector" d="M17.7593 2.74059C17.6021 2.5835 17.4059 2.47116 17.1909 2.41514C16.9758 2.35911 16.7497 2.36142 16.5359 2.42184H16.5242L1.52884 6.97184C1.2854 7.042 1.06903 7.18447 0.908388 7.38039C0.747752 7.5763 0.650437 7.8164 0.629342 8.06887C0.608246 8.32134 0.664365 8.57426 0.790262 8.79411C0.916158 9.01397 1.10589 9.19038 1.33431 9.29996L7.96869 12.5312L11.1952 19.1617C11.2956 19.3758 11.4552 19.5568 11.6551 19.6832C11.855 19.8096 12.0869 19.8761 12.3234 19.875C12.3593 19.875 12.3952 19.8734 12.4312 19.8703C12.6835 19.8498 12.9234 19.7528 13.1189 19.592C13.3144 19.4313 13.4561 19.2146 13.5249 18.9711L18.0718 3.97574C18.0718 3.97184 18.0718 3.96793 18.0718 3.96403C18.133 3.75072 18.1363 3.52496 18.0814 3.30995C18.0265 3.09493 17.9153 2.89842 17.7593 2.74059ZM12.3304 18.6132L12.3265 18.6242V18.6187L9.19681 12.189L12.9468 8.43903C13.0591 8.32086 13.1207 8.16352 13.1186 8.00054C13.1166 7.83757 13.0509 7.68185 12.9356 7.5666C12.8204 7.45135 12.6647 7.38568 12.5017 7.38359C12.3387 7.38151 12.1814 7.44317 12.0632 7.55543L8.31322 11.3054L1.88119 8.17574H1.87572H1.88665L16.8749 3.62496L12.3304 18.6132Z" fill="white"/>
</g>
</svg>
