<svg width="21" height="20" viewBox="0 0 21 20" fill="none" xmlns="http://www.w3.org/2000/svg">
<g id="TreeStructure">
<path id="Vector" d="M13 8.75H16.75C17.0815 8.75 17.3995 8.6183 17.6339 8.38388C17.8683 8.14946 18 7.83152 18 7.5V3.75C18 3.41848 17.8683 3.10054 17.6339 2.86612C17.3995 2.6317 17.0815 2.5 16.75 2.5H13C12.6685 2.5 12.3505 2.6317 12.1161 2.86612C11.8817 3.10054 11.75 3.41848 11.75 3.75V5H10.5C10.0027 5 9.52581 5.19754 9.17417 5.54917C8.82254 5.90081 8.625 6.37772 8.625 6.875V9.375H6.125V8.75C6.125 8.41848 5.9933 8.10054 5.75888 7.86612C5.52446 7.6317 5.20652 7.5 4.875 7.5H2.375C2.04348 7.5 1.72554 7.6317 1.49112 7.86612C1.2567 8.10054 1.125 8.41848 1.125 8.75V11.25C1.125 11.5815 1.2567 11.8995 1.49112 12.1339C1.72554 12.3683 2.04348 12.5 2.375 12.5H4.875C5.20652 12.5 5.52446 12.3683 5.75888 12.1339C5.9933 11.8995 6.125 11.5815 6.125 11.25V10.625H8.625V13.125C8.625 13.6223 8.82254 14.0992 9.17417 14.4508C9.52581 14.8025 10.0027 15 10.5 15H11.75V16.25C11.75 16.5815 11.8817 16.8995 12.1161 17.1339C12.3505 17.3683 12.6685 17.5 13 17.5H16.75C17.0815 17.5 17.3995 17.3683 17.6339 17.1339C17.8683 16.8995 18 16.5815 18 16.25V12.5C18 12.1685 17.8683 11.8505 17.6339 11.6161C17.3995 11.3817 17.0815 11.25 16.75 11.25H13C12.6685 11.25 12.3505 11.3817 12.1161 11.6161C11.8817 11.8505 11.75 12.1685 11.75 12.5V13.75H10.5C10.3342 13.75 10.1753 13.6842 10.0581 13.5669C9.94085 13.4497 9.875 13.2908 9.875 13.125V6.875C9.875 6.70924 9.94085 6.55027 10.0581 6.43306C10.1753 6.31585 10.3342 6.25 10.5 6.25H11.75V7.5C11.75 7.83152 11.8817 8.14946 12.1161 8.38388C12.3505 8.6183 12.6685 8.75 13 8.75ZM4.875 11.25H2.375V8.75H4.875V11.25ZM13 12.5H16.75V16.25H13V12.5ZM13 3.75H16.75V7.5H13V3.75Z" fill="#0F172A"/>
</g>
</svg>
