<svg width="20" height="20" viewBox="0 0 20 20" fill="none" xmlns="http://www.w3.org/2000/svg">
<g id="UserList" clip-path="url(#clip0_14482_14272)">
<path id="Vector" d="M11.875 6.24971C11.875 6.08395 11.9409 5.92498 12.0581 5.80777C12.1753 5.69056 12.3343 5.62471 12.5 5.62471H19.375C19.5408 5.62471 19.6998 5.69056 19.817 5.80777C19.9342 5.92498 20 6.08395 20 6.24971C20 6.41547 19.9342 6.57444 19.817 6.69165C19.6998 6.80886 19.5408 6.87471 19.375 6.87471H12.5C12.3343 6.87471 12.1753 6.80886 12.0581 6.69165C11.9409 6.57444 11.875 6.41547 11.875 6.24971ZM19.375 9.37471H12.5C12.3343 9.37471 12.1753 9.44056 12.0581 9.55777C11.9409 9.67498 11.875 9.83395 11.875 9.99971C11.875 10.1655 11.9409 10.3244 12.0581 10.4417C12.1753 10.5589 12.3343 10.6247 12.5 10.6247H19.375C19.5408 10.6247 19.6998 10.5589 19.817 10.4417C19.9342 10.3244 20 10.1655 20 9.99971C20 9.83395 19.9342 9.67498 19.817 9.55777C19.6998 9.44056 19.5408 9.37471 19.375 9.37471ZM19.375 13.1247H14.375C14.2093 13.1247 14.0503 13.1906 13.9331 13.3078C13.8159 13.425 13.75 13.584 13.75 13.7497C13.75 13.9155 13.8159 14.0744 13.9331 14.1917C14.0503 14.3089 14.2093 14.3747 14.375 14.3747H19.375C19.5408 14.3747 19.6998 14.3089 19.817 14.1917C19.9342 14.0744 20 13.9155 20 13.7497C20 13.584 19.9342 13.425 19.817 13.3078C19.6998 13.1906 19.5408 13.1247 19.375 13.1247ZM11.8555 14.8435C11.8759 14.923 11.8805 15.0057 11.8689 15.087C11.8574 15.1683 11.8299 15.2465 11.7881 15.3172C11.7463 15.3878 11.691 15.4496 11.6254 15.4988C11.5597 15.5481 11.485 15.584 11.4055 15.6044C11.3545 15.6181 11.302 15.625 11.2492 15.6247C11.1106 15.6248 10.9759 15.5788 10.8663 15.4939C10.7567 15.4091 10.6784 15.2902 10.6438 15.156C10.1625 13.2857 8.27346 11.8747 6.24924 11.8747C4.22502 11.8747 2.33596 13.2849 1.85471 15.156C1.81327 15.3165 1.70973 15.4541 1.56688 15.5383C1.42403 15.6226 1.25357 15.6466 1.09299 15.6052C0.932408 15.5637 0.794867 15.4602 0.710622 15.3174C0.626377 15.1745 0.60233 15.004 0.64377 14.8435C1.08049 13.1474 2.35002 11.7739 3.96096 11.0935C3.34067 10.6157 2.88548 9.95576 2.65923 9.20621C2.43297 8.45666 2.447 7.65509 2.69935 6.91392C2.9517 6.17275 3.42971 5.52915 4.06634 5.07339C4.70297 4.61762 5.46629 4.37256 6.24924 4.37256C7.03219 4.37256 7.79551 4.61762 8.43214 5.07339C9.06877 5.52915 9.54678 6.17275 9.79913 6.91392C10.0515 7.65509 10.0655 8.45666 9.83925 9.20621C9.613 9.95576 9.15781 10.6157 8.53752 11.0935C10.1492 11.7739 11.4188 13.1474 11.8555 14.8435ZM6.25002 10.6247C6.74447 10.6247 7.22782 10.4781 7.63895 10.2034C8.05007 9.92868 8.3705 9.53824 8.55972 9.08142C8.74894 8.62461 8.79845 8.12194 8.70198 7.63699C8.60552 7.15203 8.36742 6.70658 8.01779 6.35695C7.66816 6.00731 7.2227 5.76921 6.73775 5.67275C6.25279 5.57629 5.75013 5.62579 5.29331 5.81501C4.8365 6.00423 4.44605 6.32466 4.17135 6.73579C3.89664 7.14691 3.75002 7.63026 3.75002 8.12471C3.75002 8.78775 4.01341 9.42364 4.48225 9.89248C4.95109 10.3613 5.58698 10.6247 6.25002 10.6247Z" fill="#0F172A"/>
</g>
<defs>
<clipPath id="clip0_14482_14272">
<rect width="20" height="20" fill="white"/>
</clipPath>
</defs>
</svg>
