<svg width="20" height="20" viewBox="0 0 20 20" fill="none" xmlns="http://www.w3.org/2000/svg">
<g id="UsersThree">
<path id="Vector" d="M19.125 11.7498C19.0593 11.7991 18.9846 11.8349 18.9051 11.8553C18.8256 11.8756 18.7429 11.8801 18.6616 11.8685C18.5804 11.8569 18.5022 11.8294 18.4316 11.7876C18.3609 11.7458 18.2993 11.6905 18.25 11.6248C17.8733 11.1185 17.383 10.7076 16.8185 10.4254C16.254 10.1431 15.6311 9.99737 15 9.99981C14.8771 9.9998 14.7569 9.96356 14.6545 9.89561C14.5521 9.82766 14.472 9.73102 14.4242 9.61778C14.3918 9.54089 14.3751 9.45827 14.3751 9.37481C14.3751 9.29135 14.3918 9.20874 14.4242 9.13185C14.472 9.01861 14.5521 8.92197 14.6545 8.85402C14.7569 8.78607 14.8771 8.74983 15 8.74981C15.3507 8.74978 15.6943 8.65141 15.9919 8.46586C16.2895 8.28032 16.5291 8.01504 16.6834 7.70016C16.8378 7.38528 16.9007 7.03342 16.8652 6.68455C16.8296 6.33568 16.6969 6.00378 16.4821 5.72655C16.2674 5.44932 15.9791 5.23788 15.6502 5.11623C15.3213 4.99459 14.9649 4.96762 14.6214 5.03839C14.278 5.10917 13.9612 5.27484 13.7072 5.5166C13.4532 5.75836 13.2721 6.06652 13.1844 6.40606C13.1639 6.48558 13.1279 6.56027 13.0785 6.62587C13.0291 6.69148 12.9673 6.74672 12.8966 6.78843C12.8258 6.83014 12.7476 6.85752 12.6663 6.86899C12.5849 6.88046 12.5022 6.8758 12.4227 6.85528C12.3432 6.83476 12.2685 6.79878 12.2029 6.7494C12.1372 6.70001 12.082 6.63819 12.0403 6.56746C11.9986 6.49673 11.9712 6.41847 11.9597 6.33716C11.9483 6.25585 11.9529 6.17308 11.9734 6.09356C12.0951 5.62272 12.325 5.18677 12.6448 4.8204C12.9647 4.45404 13.3656 4.16737 13.8157 3.98321C14.2658 3.79905 14.7526 3.72249 15.2375 3.7596C15.7224 3.79672 16.192 3.94649 16.6088 4.19701C17.0256 4.44753 17.3783 4.79187 17.6386 5.20264C17.8989 5.61341 18.0598 6.07927 18.1084 6.56316C18.157 7.04704 18.092 7.53559 17.9186 7.98993C17.7451 8.44427 17.4681 8.85187 17.1094 9.18028C17.9592 9.54825 18.698 10.1322 19.2523 10.874C19.3016 10.9399 19.3374 11.0148 19.3576 11.0944C19.3779 11.1741 19.3822 11.257 19.3704 11.3383C19.3586 11.4197 19.3308 11.4979 19.2887 11.5685C19.2466 11.6391 19.191 11.7007 19.125 11.7498ZM14.9156 16.5623C14.9609 16.6334 14.9912 16.713 15.0049 16.7962C15.0186 16.8793 15.0153 16.9644 14.9952 17.0463C14.9752 17.1282 14.9388 17.2051 14.8882 17.2726C14.8376 17.34 14.7739 17.3965 14.701 17.4387C14.628 17.4809 14.5472 17.5079 14.4635 17.5181C14.3799 17.5282 14.295 17.5213 14.214 17.4979C14.1331 17.4744 14.0577 17.4348 13.9925 17.3814C13.9272 17.328 13.8735 17.262 13.8344 17.1873C13.4407 16.5207 12.8799 15.9682 12.2075 15.5843C11.5351 15.2005 10.7742 14.9987 10 14.9987C9.22577 14.9987 8.4649 15.2005 7.79249 15.5843C7.12007 15.9682 6.55935 16.5207 6.16563 17.1873C6.12656 17.262 6.07278 17.328 6.00754 17.3814C5.94229 17.4348 5.86692 17.4744 5.78597 17.4979C5.70501 17.5213 5.62014 17.5282 5.53647 17.5181C5.45279 17.5079 5.37203 17.4809 5.29905 17.4387C5.22607 17.3965 5.16238 17.34 5.11181 17.2726C5.06124 17.2051 5.02483 17.1282 5.00478 17.0463C4.98472 16.9644 4.98144 16.8793 4.99512 16.7962C5.0088 16.713 5.03916 16.6334 5.08438 16.5623C5.69032 15.5212 6.61422 14.7019 7.72032 14.2248C7.09792 13.7483 6.6405 13.0887 6.41235 12.3387C6.18421 11.5888 6.1968 10.7862 6.44838 10.0438C6.69995 9.30139 7.17785 8.65648 7.81491 8.19972C8.45196 7.74296 9.21613 7.49731 10 7.49731C10.7839 7.49731 11.5481 7.74296 12.1851 8.19972C12.8222 8.65648 13.3001 9.30139 13.5516 10.0438C13.8032 10.7862 13.8158 11.5888 13.5877 12.3387C13.3595 13.0887 12.9021 13.7483 12.2797 14.2248C13.3858 14.7019 14.3097 15.5212 14.9156 16.5623ZM10 13.7498C10.4945 13.7498 10.9778 13.6032 11.3889 13.3285C11.8001 13.0538 12.1205 12.6633 12.3097 12.2065C12.4989 11.7497 12.5484 11.247 12.452 10.7621C12.3555 10.2771 12.1174 9.83168 11.7678 9.48205C11.4181 9.13242 10.9727 8.89431 10.4877 8.79785C10.0028 8.70139 9.50011 8.7509 9.0433 8.94011C8.58648 9.12933 8.19604 9.44977 7.92133 9.86089C7.64663 10.272 7.50001 10.7554 7.50001 11.2498C7.50001 11.9129 7.7634 12.5487 8.23224 13.0176C8.70108 13.4864 9.33697 13.7498 10 13.7498ZM5.62501 9.37481C5.62501 9.20905 5.55916 9.05008 5.44195 8.93287C5.32474 8.81566 5.16577 8.74981 5.00001 8.74981C4.64933 8.74978 4.30568 8.65141 4.00811 8.46586C3.71053 8.28032 3.47096 8.01504 3.3166 7.70016C3.16223 7.38528 3.09927 7.03342 3.13485 6.68455C3.17044 6.33568 3.30314 6.00378 3.5179 5.72655C3.73266 5.44932 4.02087 5.23788 4.34977 5.11623C4.67868 4.99459 5.03511 4.96762 5.37858 5.03839C5.72204 5.10917 6.03877 5.27484 6.2928 5.5166C6.54683 5.75836 6.72796 6.06652 6.81563 6.40606C6.85707 6.56664 6.96061 6.70419 7.10346 6.78843C7.24631 6.87268 7.41677 6.89672 7.57735 6.85528C7.73793 6.81384 7.87547 6.71031 7.95972 6.56746C8.04396 6.42461 8.06801 6.25414 8.02657 6.09356C7.90489 5.62272 7.67499 5.18677 7.35517 4.8204C7.03536 4.45404 6.63445 4.16737 6.18435 3.98321C5.73424 3.79905 5.24737 3.72249 4.76248 3.7596C4.27758 3.79672 3.80803 3.94649 3.3912 4.19701C2.97437 4.44753 2.62176 4.79187 2.36143 5.20264C2.1011 5.61341 1.94023 6.07927 1.89162 6.56316C1.84302 7.04704 1.90802 7.53559 2.08145 7.98993C2.25488 8.44427 2.53196 8.85187 2.89063 9.18028C2.04164 9.5486 1.30369 10.1325 0.750008 10.874C0.650448 11.0066 0.607645 11.1734 0.631013 11.3375C0.654382 11.5017 0.742009 11.6499 0.874617 11.7494C1.00723 11.849 1.17395 11.8918 1.33812 11.8684C1.50229 11.845 1.65045 11.7574 1.75001 11.6248C2.12672 11.1185 2.61705 10.7076 3.18154 10.4254C3.74603 10.1431 4.3689 9.99737 5.00001 9.99981C5.16577 9.99981 5.32474 9.93397 5.44195 9.81676C5.55916 9.69955 5.62501 9.54057 5.62501 9.37481Z" fill="#0F172A"/>
</g>
</svg>
