<svg width="20" height="20" viewBox="0 0 20 20" fill="none" xmlns="http://www.w3.org/2000/svg">
<g id="UserList" clip-path="url(#clip0_14732_789)">
<path id="Vector" d="M11.875 6.24983C11.875 6.08407 11.9409 5.9251 12.0581 5.80789C12.1753 5.69068 12.3343 5.62483 12.5 5.62483H19.375C19.5408 5.62483 19.6997 5.69068 19.817 5.80789C19.9342 5.9251 20 6.08407 20 6.24983C20 6.41559 19.9342 6.57457 19.817 6.69178C19.6997 6.80899 19.5408 6.87483 19.375 6.87483H12.5C12.3343 6.87483 12.1753 6.80899 12.0581 6.69178C11.9409 6.57457 11.875 6.41559 11.875 6.24983ZM19.375 9.37484H12.5C12.3343 9.37484 12.1753 9.44068 12.0581 9.55789C11.9409 9.6751 11.875 9.83407 11.875 9.99984C11.875 10.1656 11.9409 10.3246 12.0581 10.4418C12.1753 10.559 12.3343 10.6248 12.5 10.6248H19.375C19.5408 10.6248 19.6997 10.559 19.817 10.4418C19.9342 10.3246 20 10.1656 20 9.99984C20 9.83407 19.9342 9.6751 19.817 9.55789C19.6997 9.44068 19.5408 9.37484 19.375 9.37484ZM19.375 13.1248H14.375C14.2093 13.1248 14.0503 13.1907 13.9331 13.3079C13.8159 13.4251 13.75 13.5841 13.75 13.7498C13.75 13.9156 13.8159 14.0746 13.9331 14.1918C14.0503 14.309 14.2093 14.3748 14.375 14.3748H19.375C19.5408 14.3748 19.6997 14.309 19.817 14.1918C19.9342 14.0746 20 13.9156 20 13.7498C20 13.5841 19.9342 13.4251 19.817 13.3079C19.6997 13.1907 19.5408 13.1248 19.375 13.1248ZM11.8555 14.8436C11.8759 14.9231 11.8805 15.0059 11.8689 15.0871C11.8574 15.1684 11.8299 15.2466 11.7881 15.3173C11.7463 15.3879 11.691 15.4497 11.6254 15.499C11.5597 15.5482 11.485 15.5841 11.4055 15.6045C11.3545 15.6183 11.302 15.6251 11.2492 15.6248C11.1106 15.6249 10.9759 15.5789 10.8663 15.494C10.7567 15.4092 10.6784 15.2903 10.6438 15.1561C10.1625 13.2858 8.27345 11.8748 6.24924 11.8748C4.22502 11.8748 2.33595 13.285 1.8547 15.1561C1.81326 15.3167 1.70973 15.4542 1.56688 15.5385C1.42403 15.6227 1.25357 15.6467 1.09298 15.6053C0.932405 15.5639 0.794863 15.4603 0.710618 15.3175C0.626374 15.1746 0.602326 15.0042 0.643766 14.8436C1.08048 13.1475 2.35002 11.7741 3.96095 11.0936C3.34067 10.6158 2.88548 9.95589 2.65922 9.20634C2.43297 8.45678 2.447 7.65522 2.69935 6.91404C2.9517 6.17287 3.42971 5.52927 4.06633 5.07351C4.70296 4.61775 5.46628 4.37268 6.24924 4.37268C7.03219 4.37268 7.79551 4.61775 8.43214 5.07351C9.06876 5.52927 9.54677 6.17287 9.79912 6.91404C10.0515 7.65522 10.0655 8.45678 9.83925 9.20634C9.613 9.95589 9.1578 10.6158 8.53752 11.0936C10.1492 11.7741 11.4188 13.1475 11.8555 14.8436ZM6.25002 10.6248C6.74447 10.6248 7.22782 10.4782 7.63894 10.2035C8.05006 9.9288 8.3705 9.53836 8.55972 9.08154C8.74893 8.62473 8.79844 8.12206 8.70198 7.63711C8.60552 7.15216 8.36741 6.7067 8.01778 6.35707C7.66815 6.00744 7.22269 5.76933 6.73774 5.67287C6.25279 5.57641 5.75012 5.62592 5.29331 5.81514C4.83649 6.00435 4.44605 6.32479 4.17134 6.73591C3.89664 7.14703 3.75002 7.63038 3.75002 8.12483C3.75002 8.78788 4.01341 9.42376 4.48225 9.8926C4.95109 10.3614 5.58698 10.6248 6.25002 10.6248Z" fill="#0284C7"/>
</g>
<defs>
<clipPath id="clip0_14732_789">
<rect width="20" height="20" fill="white"/>
</clipPath>
</defs>
</svg>
