<svg width="20" height="20" viewBox="0 0 20 20" fill="none" xmlns="http://www.w3.org/2000/svg">
<g id="WarningCircle">
<path id="Vector" d="M9.99988 1.875C8.39291 1.875 6.82202 2.35152 5.48587 3.24431C4.14972 4.1371 3.10832 5.40605 2.49336 6.8907C1.8784 8.37535 1.7175 10.009 2.031 11.5851C2.34451 13.1612 3.11834 14.6089 4.25464 15.7452C5.39094 16.8815 6.83868 17.6554 8.41477 17.9689C9.99087 18.2824 11.6245 18.1215 13.1092 17.5065C14.5938 16.8916 15.8628 15.8502 16.7556 14.514C17.6484 13.1779 18.1249 11.607 18.1249 10C18.1226 7.84581 17.2659 5.78051 15.7426 4.25727C14.2194 2.73403 12.1541 1.87727 9.99988 1.875ZM9.99988 16.875C8.64013 16.875 7.31092 16.4718 6.18034 15.7164C5.04975 14.9609 4.16856 13.8872 3.64821 12.6309C3.12786 11.3747 2.99171 9.99237 3.25698 8.65875C3.52226 7.32513 4.17704 6.10013 5.13852 5.13864C6.10001 4.17716 7.32502 3.52237 8.65864 3.2571C9.99226 2.99183 11.3746 3.12798 12.6308 3.64833C13.8871 4.16868 14.9608 5.04987 15.7162 6.18045C16.4717 7.31104 16.8749 8.64025 16.8749 10C16.8728 11.8227 16.1478 13.5702 14.859 14.8591C13.5701 16.1479 11.8226 16.8729 9.99988 16.875ZM9.37488 10.625V6.25C9.37488 6.08424 9.44073 5.92527 9.55794 5.80806C9.67515 5.69085 9.83412 5.625 9.99988 5.625C10.1656 5.625 10.3246 5.69085 10.4418 5.80806C10.559 5.92527 10.6249 6.08424 10.6249 6.25V10.625C10.6249 10.7908 10.559 10.9497 10.4418 11.0669C10.3246 11.1842 10.1656 11.25 9.99988 11.25C9.83412 11.25 9.67515 11.1842 9.55794 11.0669C9.44073 10.9497 9.37488 10.7908 9.37488 10.625ZM10.9374 13.4375C10.9374 13.6229 10.8824 13.8042 10.7794 13.9583C10.6764 14.1125 10.53 14.2327 10.3586 14.3036C10.1873 14.3746 9.99884 14.3932 9.81698 14.357C9.63513 14.3208 9.46808 14.2315 9.33697 14.1004C9.20586 13.9693 9.11657 13.8023 9.0804 13.6204C9.04422 13.4385 9.06279 13.25 9.13374 13.0787C9.2047 12.9074 9.32486 12.761 9.47903 12.658C9.63321 12.555 9.81446 12.5 9.99988 12.5C10.2485 12.5 10.487 12.5988 10.6628 12.7746C10.8386 12.9504 10.9374 13.1889 10.9374 13.4375Z" fill="#0F172A"/>
</g>
</svg>
