<svg width="20" height="20" viewBox="0 0 20 20" fill="none" xmlns="http://www.w3.org/2000/svg">
<g id="X">
<path id="Vector" d="M16.0672 15.1829C16.1253 15.241 16.1713 15.3099 16.2028 15.3858C16.2342 15.4617 16.2504 15.543 16.2504 15.6251C16.2504 15.7072 16.2342 15.7885 16.2028 15.8644C16.1713 15.9403 16.1253 16.0092 16.0672 16.0673C16.0091 16.1254 15.9402 16.1714 15.8643 16.2028C15.7885 16.2343 15.7071 16.2505 15.625 16.2505C15.5429 16.2505 15.4616 16.2343 15.3857 16.2028C15.3098 16.1714 15.2409 16.1254 15.1828 16.0673L10 10.8837L4.8172 16.0673C4.69992 16.1846 4.54086 16.2505 4.37501 16.2505C4.20916 16.2505 4.0501 16.1846 3.93282 16.0673C3.81555 15.95 3.74966 15.791 3.74966 15.6251C3.74966 15.4593 3.81555 15.3002 3.93282 15.1829L9.11642 10.0001L3.93282 4.81729C3.81555 4.70002 3.74966 4.54096 3.74966 4.3751C3.74966 4.20925 3.81555 4.05019 3.93282 3.93292C4.0501 3.81564 4.20916 3.74976 4.37501 3.74976C4.54086 3.74976 4.69992 3.81564 4.8172 3.93292L10 9.11651L15.1828 3.93292C15.3001 3.81564 15.4592 3.74976 15.625 3.74976C15.7909 3.74976 15.9499 3.81564 16.0672 3.93292C16.1845 4.05019 16.2504 4.20925 16.2504 4.3751C16.2504 4.54096 16.1845 4.70002 16.0672 4.81729L10.8836 10.0001L16.0672 15.1829Z" fill="#64748B"/>
</g>
</svg>
