<svg width="16" height="16" viewBox="0 0 16 16" fill="none" xmlns="http://www.w3.org/2000/svg">
<g id="X">
<path id="Vector" d="M12.8538 12.1463C12.9003 12.1927 12.9371 12.2479 12.9623 12.3086C12.9874 12.3693 13.0004 12.4343 13.0004 12.5C13.0004 12.5657 12.9874 12.6308 12.9623 12.6915C12.9371 12.7522 12.9003 12.8073 12.8538 12.8538C12.8074 12.9002 12.7522 12.9371 12.6915 12.9622C12.6308 12.9874 12.5658 13.0003 12.5001 13.0003C12.4344 13.0003 12.3693 12.9874 12.3086 12.9622C12.2479 12.9371 12.1928 12.9002 12.1463 12.8538L8.00008 8.70691L3.85383 12.8538C3.76001 12.9476 3.63276 13.0003 3.50008 13.0003C3.3674 13.0003 3.24015 12.9476 3.14633 12.8538C3.05251 12.76 2.9998 12.6327 2.9998 12.5C2.9998 12.3674 3.05251 12.2401 3.14633 12.1463L7.29321 8.00003L3.14633 3.85378C3.05251 3.75996 2.9998 3.63272 2.9998 3.50003C2.9998 3.36735 3.05251 3.2401 3.14633 3.14628C3.24015 3.05246 3.3674 2.99976 3.50008 2.99976C3.63276 2.99976 3.76001 3.05246 3.85383 3.14628L8.00008 7.29316L12.1463 3.14628C12.2402 3.05246 12.3674 2.99976 12.5001 2.99976C12.6328 2.99976 12.76 3.05246 12.8538 3.14628C12.9477 3.2401 13.0004 3.36735 13.0004 3.50003C13.0004 3.63272 12.9477 3.75996 12.8538 3.85378L8.70696 8.00003L12.8538 12.1463Z" fill="#64748B"/>
</g>
</svg>
